<svg width="209" height="314" viewBox="0 0 209 314" fill="none" xmlns="http://www.w3.org/2000/svg">
<path d="M118.815 245.018L124.813 227.074C134.077 224.881 142.779 221.241 150.653 216.379L167.57 224.819C175.21 219.026 182.028 212.207 187.819 204.569L179.379 187.649C184.243 179.777 187.887 171.075 190.078 161.813L208.02 155.815C208.66 151.133 209 146.356 209 141.498C209 136.64 208.66 131.865 208.02 127.182L190.078 121.183C187.887 111.921 184.243 103.219 179.379 95.3452L187.819 78.4276C182.028 70.7877 175.21 63.9705 167.57 58.1812L150.653 66.621C142.779 61.757 134.077 58.1128 124.813 55.924L118.815 37.9804C114.135 37.3401 109.356 37 104.5 37C99.6436 37 94.8651 37.3382 90.1854 37.9804L84.1871 55.924C74.9227 58.1147 66.2207 61.757 58.3471 66.6191L41.4295 58.1831C33.7896 63.9724 26.9724 70.7896 21.1812 78.4295L29.621 95.3471C24.757 103.221 21.1128 111.923 18.9221 121.185L0.982306 127.184C0.340106 131.865 7.20782e-06 136.642 6.99546e-06 141.5C6.7831e-06 146.358 0.340105 151.133 0.982305 155.816L18.9221 161.815C21.1128 171.077 24.757 179.779 29.6191 187.651L21.1812 204.57C26.9724 212.208 33.7896 219.028 41.4295 224.817L58.3471 216.381C66.2207 221.243 74.9227 224.883 84.1871 227.076L90.1853 245.02C94.865 245.66 99.6436 246 104.5 246C109.356 246 114.135 245.66 118.815 245.018ZM33.079 141.498C33.079 102.054 65.0541 70.0771 104.5 70.0771C143.946 70.0771 175.921 102.054 175.921 141.498C175.921 180.942 143.946 212.919 104.5 212.919C65.0541 212.919 33.079 180.942 33.079 141.498Z" fill="#F8C62C"/>
<mask id="mask0" mask-type="alpha" maskUnits="userSpaceOnUse" x="71" y="0" width="67" height="314">
<rect x="71" width="67" height="314" fill="#C4C4C4"/>
</mask>
<g mask="url(#mask0)">
<circle cx="104.5" cy="141.5" r="63.5" transform="rotate(90 104.5 141.5)" fill="#C0C0C0"/>
<path d="M110.102 140.972V144.222L120.592 137.574V194.753H99.5137V190.025H96.7554V197.461H123.301V132.55L110.102 140.972Z" fill="#2F374A"/>
<path d="M88.4815 139.79V154.762L91.2398 153.038V141.662V141.267L107.344 130.974V141.662V142.745L110.102 140.972V126L88.4815 139.79Z" fill="#2F374A"/>
<path d="M84 157.618V190.025H110.102V140.972L84 157.618ZM107.344 187.267H86.7578V159.145L107.344 145.995V187.267Z" fill="#2F374A"/>
<path d="M102.046 121H78.679V116.439L89.7071 104.875C91.2212 103.248 92.3373 101.827 93.0553 100.614C93.789 99.4006 94.1558 98.2489 94.1558 97.1585C94.1558 95.6689 93.7734 94.5018 93.0085 93.6572C92.2436 92.7972 91.151 92.3672 89.7305 92.3672C88.2008 92.3672 86.9911 92.8893 86.1013 93.9336C85.2272 94.9625 84.7901 96.3216 84.7901 98.0108H78C78 95.9684 78.4917 94.1025 79.4751 92.4133C80.4741 90.724 81.879 89.4033 83.6897 88.4512C85.5004 87.4837 87.553 87 89.8476 87C93.3597 87 96.0836 87.8293 98.0192 89.4878C99.9703 91.1463 100.946 93.4883 100.946 96.5136C100.946 98.1721 100.509 99.8613 99.6347 101.581C98.7606 103.301 97.2621 105.305 95.1392 107.593L87.3891 115.633H102.046V121Z" fill="#2F374A"/>
<path d="M106.94 121V87.4607H117.43C120.427 87.4607 123.104 88.1287 125.461 89.4648C127.833 90.7855 129.683 92.6743 131.01 95.1314C132.337 97.5732 133 100.353 133 103.47V105.014C133 108.131 132.344 110.903 131.033 113.329C129.738 115.756 127.904 117.637 125.531 118.973C123.158 120.309 120.481 120.985 117.5 121H106.94ZM113.964 93.0583V115.449H117.359C120.107 115.449 122.206 114.565 123.658 112.799C125.109 111.033 125.851 108.507 125.882 105.221V103.447C125.882 100.038 125.164 97.458 123.728 95.7073C122.292 93.9413 120.192 93.0583 117.43 93.0583H113.964Z" fill="#2F374A"/>
</g>
</svg>
